<?xml version="1.0" encoding="UTF-8"?>
<svg id="Camada_1" xmlns="http://www.w3.org/2000/svg" viewBox="0 0 960 662">
  <defs>
    <style>
      .cls-1 {
        fill: #eee4df;
      }

      .cls-2 {
        fill: #e0c5c3;
      }

      .cls-3 {
        fill: #694c42;
      }

      .cls-4 {
        fill: #b0def6;
      }
    </style>
  </defs>
  <g>
    <rect class="cls-4" width="960" height="142"/>
    <path d="M870.89,64.66c-4.31,1.07-8.1,2.97-11.52,5.62-.37.28-.59.94-.62,1.44-.28,3.6-.49,7.21-.74,10.82-.1,1.37-.2,2.74-.41,4.1-.5,3.35-2.39,5.77-5.45,7.03-6.88,2.83-13.98,4.98-21.35,6.13-.94.15-1.92.02-2.89.02-.04-.14-.08-.28-.12-.42.67-.41,1.28-.99,2.01-1.22,2.95-.92,5.93-1.77,8.92-2.56,2.54-.67,5.14-1.15,7.67-1.85,6.06-1.68,9.71-5.38,9.9-11.97.1-3.65.35-7.3.52-10.95.01-.23-.05-.45-.08-.73-2.08.2-4.1.45-6.13.58-5.48.36-10.93.2-16.22-1.52-2.61-.85-5.04-2.06-6.86-4.18-.92-1.08-1.62-2.35-2.54-3.73,2.19-1,4.03-1.97,5.96-2.7,5.36-2.05,10.15-4.95,14.24-9,2.38-2.36,5.32-3.57,8.67-3.8.43-.03.85-.11,1.31-.39-1.06-.25-2.12-.53-3.19-.75-7.81-1.57-15.65-3.04-23.44-4.75-2.82-.62-5.54-1.74-8.23-2.81-1.29-.52-2.49-1.36-3.56-2.26-.67-.57-1.18-1.47-1.48-2.33-.46-1.34-.13-2.08,1.24-2.42,2.16-.53,4.37-.93,6.58-1.13,2.05-.19,4.13-.04,6.23-.29-2.92-.64-5.84-1.29-8.87-1.95,1.02-1.58,2.43-2.31,3.97-2.82,3.19-1.07,6.49-1.13,9.8-1.03,8.24.25,16.31,1.84,24.4,3.26,2.94.52,5.89,1,8.83,1.48.53.09,1.08.08,1.77.13.17-3.06.33-6.01.49-8.97,2.34.18,2.64.43,3.11,2.47.4,1.72.85,3.43,1.23,5.16.52,2.38,1.88,4.12,4.12,4.94,2.82,1.03,5.74,1.82,8.72,2.75.84-5.56.1-11,1.63-16.17.16,0,.32-.02.48-.03.21.85.5,1.68.63,2.54.57,3.75-.12,7.44-.59,11.14-.11.89-.23,1.78-.36,2.75,1.65-.1,3.21-.2,4.76-.29,1.96-.11,3.41.6,4.62,2.25.83,1.14,2.12,1.94,3.22,2.87.5.42,1.01.36,1.45-.12,1.61-1.72,3.27-3.38,4.8-5.17,1.58-1.86,3.33-3.45,5.63-4.35.36-.14.73-.26,1.3-.47.22,2.56.46,5.01.63,7.47.42,5.96.71,11.93,1.24,17.88.41,4.59,1.3,9.11,3.29,13.32,1.04,2.19,2.21,4.33,3.32,6.49.11.21.25.41.41.57,3.26,3.29,6.74,6.3,11.16,7.91,1.85.67,2.45,1.88,2.48,3.74-.32-.17-.58-.31-.84-.45-3.04-1.64-6.07-3.32-9.13-4.91-3.65-1.9-6.2-4.76-8.24-8.32-2.24-3.91-2.81-8.14-3.19-12.43-.72-8.06-1.28-16.14-1.9-24.21-.02-.27-.04-.55-.08-.82-.24-1.59-1.12-2.04-2.6-1.33-.25.12-.53.24-.69.45-1.89,2.35-3.88,4.63-5.58,7.11-1.1,1.6-.55,3.37.37,5.02.91,1.64,1.93,3.28,2.49,5.05,1.21,3.88.7,7.47-2.59,10.29-.56.48-1.08,1.01-1.56,1.45,1.03,1.2,1.84,2.44,2.94,3.34.87.71,2.08,1.01,3.23,1.53-.33.19-.71.36-1.02.62-.5.42-1.1.83-1.41,1.38-.74,1.33-1.36,2.72-1.94,4.13-.13.31.02.85.22,1.16,1.43,2.21,2.88,4.41,4.37,6.57,1.68,2.44,3.14,4.99,3.91,7.88.1.37.17.74.32,1.41-1.61-1.25-2.49-2.66-3.19-4.19-1.01-2.22-2.43-4.11-4.19-5.78-1.95-1.85-4.19-3.16-6.78-3.89-.79-.22-1.59-.45-2.36-.73-3.02-1.09-4.25-2.77-4.36-5.99-.04-1.02.09-2.04.1-3.06.02-1.56,0-3.12,0-4.68-.16-.02-.32-.03-.47-.05-.27,1.8-.65,3.58-.79,5.39-.87,11.55-.66,23.1.45,34.63.37,3.84,1.52,7.36,3.78,10.52,1,1.4,1.87,2.89,1.84,4.72-1.14-1.37-2.28-2.71-3.39-4.07-2.93-3.6-4.08-7.91-4.84-12.36-1.14-6.67-1-13.39-.6-20.11.35-5.92.79-11.84,1.19-17.77.01-.15-.02-.3-.03-.53-2.78-.09-5.11.96-7.35,2.42-1.12.73-2.4,1.31-3.68,1.69-.51.15-1.29-.31-1.83-.68-1.25-.83-2.43-1.77-3.63-2.67-.12.09-.24.17-.36.26,0,.41,0,.82,0,1.22.02,5.35.1,10.69.03,16.04-.08,6.24-1.68,12.12-4.66,17.6-3.22,5.91-6.61,11.71-10.96,16.88-.71.84-1.47,1.65-2.27,2.4-2.02,1.88-4.08,3.72-6.04,5.49-.7-2.05-.29-3.85,1.57-5.27,6.62-5.02,11.24-11.71,15.45-18.71,2.22-3.7,3.03-7.9,3.57-12.13.97-7.55.68-15.15.76-22.73,0-.11-.05-.23-.12-.51Z"/>
  </g>
  <g>
    <rect class="cls-1" y="170" width="960" height="147"/>
    <path d="M898.19,305.3c.23-3.05.44-5.83.64-8.6.22-3.15-.46-6.06-2.05-8.82-2.59-4.5-3.89-9.49-5.13-14.48-.86-3.44-1.7-6.9-2.25-10.39-.33-2.14-.12-4.36-.1-6.55.01-1.71-.06-3.4-.73-5.02-.27-.66-.63-.93-1.38-.96-1.91-.06-3.46.48-4.46,2.22-.97,1.7-2.53,2.13-4.44,1.93.26,1.47.5,2.83.75,4.19,1.99,10.72,1.37,21.32-1.49,31.81-1.06,3.89-2.23,7.74-3.35,11.61-.05.16-.12.31-.24.65-.48-1.65-.53-3.16-.31-4.66.58-4.02,1.21-8.03,1.87-12.03,1.03-6.26,1.79-12.54,1.28-18.91-.39-4.88-1.48-9.59-3.47-14.07-.14-.32-.55-.65-.89-.71-2.07-.39-4.15-.65-6.26-.32-2.19.35-3.81,1.48-4.38,3.64-.53,1.99-.9,4.05-1.11,6.1-.5,5.04-1.81,9.88-3.42,14.64-1.4,4.13-2.96,8.22-4.53,12.29-.46,1.18-1.19,2.25-1.85,3.35-.25.42-.65.76-1.16,1.05.29-1.16.57-2.31.86-3.47,2.82-11.05,5.57-22.13,8.5-33.15.88-3.3,2.28-6.47,3.45-9.7.16-.45.34-.9.48-1.36.67-2.19.99-1.62-.9-3.26-1.78-1.54-3.71-2.9-5.62-4.29-2.73-1.99-5.48-3.95-8.24-5.9-1-.7-2.01-1.39-3.06-2-2.27-1.32-4.72-1.62-7.13-.61-2.75,1.14-5.45,2.41-8.06,3.82-4.26,2.31-8.15,5.18-11.68,8.51-5.7,5.38-8.07,9.12-10.53,16.6-.58-1.23-.67-2.49-.29-3.63.59-1.79,1.26-3.6,2.21-5.22,2.3-3.93,5.42-7.21,8.69-10.35,4.52-4.34,9.3-8.37,14.97-11.16,1.47-.72,3.01-1.33,4.57-1.83,2.28-.73,4.52-.4,6.55.86,1.69,1.05,3.32,2.19,4.96,3.31,3.55,2.45,7.36,4.39,11.42,5.83.28.1.57.18,1.03.32-.15-.68-.24-1.2-.38-1.7-.92-3.28-2.42-6.3-4.12-9.23-3.9-6.73-8.38-13.05-13.81-18.65-.59-.61-1.2-1.24-1.91-1.69-2.72-1.71-4.76-4.11-6.82-6.5-.78-.9-1.67-1.7-2.52-2.53-1.22-1.19-2.56-2.27-3.66-3.56-2.55-2.98-5.5-5.5-8.61-7.85-.26-.2-.51-.41-.77-.61.05-.1.09-.19.14-.29,1.28.49,2.61.89,3.84,1.48,2.34,1.14,4.15,2.96,5.88,4.86,1.2,1.32,2.38,2.68,3.59,4,1.32,1.44,2.87,2.56,4.61,3.46,1.2.62,2.39,1.33,3.44,2.18,4.06,3.31,7.79,6.97,11.25,10.91,1.55,1.77,2.84,3.68,3.65,5.9.26.72.68,1.38.9,2.11.4,1.31,1.32,1.97,2.65,2.32,0-1.75-.06-3.47.01-5.19.11-2.79.54-5.54,1.69-8.12.79-1.8,1.89-3.36,3.44-4.59,2.77-2.19,5.75-4.01,9.22-4.8,4.65-1.07,12.03.33,15.99,6.36,2.17,3.3,3.4,6.97,4.44,10.73.33,1.2.64,2.4,1.19,3.76.13-.21.25-.42.38-.63.67-1.05,1.5-2.03,2-3.16,1.52-3.44,3.74-6.39,6.02-9.34,6.02-7.8,13.18-14.49,20.23-21.29.63-.61,1.39-1.08,2.09-1.61.15-.11.34-.18.72-.36-.23.49-.37.82-.53,1.13-1.96,3.89-4.67,7.25-7.53,10.5-4.11,4.67-8.33,9.25-12.39,13.97-3.99,4.63-7.17,9.76-9.45,15.48-1.81,4.53-4.03,8.89-6.07,13.32-.14.3-.25.6-.25,1.09,2.19-.91,4.39-1.78,6.55-2.75,3.51-1.57,6.78-3.57,9.94-5.75,1.15-.79,2.31-1.55,3.49-2.29,2.62-1.66,5.39-1.94,8.32-.93,4.27,1.47,8.11,3.67,11.5,6.66,5.5,4.85,10.02,10.45,12.81,17.3.94,2.3,1.5,4.7,1.48,7.22-.08-.25-.18-.5-.25-.76-1.2-4.22-3.36-7.93-6-11.38-1.28-1.67-2.62-3.29-3.88-4.97-3.88-5.18-9.29-8.27-14.97-10.95-2.89-1.37-5.79-1.14-8.57.49-.42.24-.84.47-1.25.73-4.41,2.85-8.84,5.68-13.23,8.56-1.49.98-2.89,2.1-4.52,3.49.25.13.54.21.74.4,1.94,1.7,3.33,3.78,4.13,6.24,1.13,3.5,2.71,6.8,4.73,9.88,1.47,2.24,1.8,4.76,1.9,7.33.38,9.57-.12,19.08-1.68,28.54-.5,3.04-1.27,6-2.78,8.72-.17.31-.39.58-.72,1.05ZM899.77,288.87c.09,0,.18-.01.28-.02.15-1.97.5-3.95.41-5.9-.28-6.27-.66-12.53-1.12-18.79-.12-1.62-.53-3.26-1.09-4.78-.82-2.23-2.56-3.73-4.57-4.97-2.74,8.03,1.31,27.67,6.09,34.46Z"/>
  </g>
  <g>
    <rect class="cls-2" y="342.5" width="960" height="147"/>
    <path d="M915.81,401.79c-2.73,3.66-5.31,7.15-7.93,10.61-1.07,1.4-2.56,1.96-4.32,1.96-2.07,0-4.14.14-6.2.23-.15,0-.3.07-.55.12.96,2.72,1.88,5.38,2.85,8.03.07.2.43.4.66.41,2.24.07,4.47.05,6.71.14,1.86.08,3.52-.43,5.02-1.47,1.27-.88,2.49-1.83,3.75-2.74,1.69-1.21,3.4-2.43,5.49-2.79.95-.17,1.97,0,2.95.01.02.12.03.24.05.37-.19.14-.37.32-.58.41-.85.36-1.69.74-2.56,1.03-2.31.77-4.27,2.05-5.8,3.94-2.97,3.66-6.85,5.34-11.5,5.26-1.97-.03-3.95-.17-5.89-.49-.82-.14-1.6-.8-2.31-1.34-.7-.52-1.29-1.19-2.08-1.94-.23.88-.42,1.52-.57,2.18-.93,3.87-1.99,7.71-2.73,11.61-.74,3.9-.57,7.79,1.03,11.53.39.91.98,1.28,1.85,1.25,2.13-.07,4.28-.09,6.39-.32,3.06-.32,5.21.55,6.56,2.97-.62-.09-1.15-.15-1.67-.23-3.36-.52-6.69-.26-10.02.28-1.92.31-3.85.46-5.79,0-.59-.14-.88-.4-1.08-.97-.83-2.43-1.71-4.84-2.57-7.25-.11-.3-.24-.6-.4-1-1.37,1.37-2.24,2.94-2.49,4.7-.41,2.96-.53,5.95-.85,8.92-.29,2.64-.48,5.32-1.09,7.9-1.07,4.54-3.76,8.13-7.33,11.09-1.62,1.34-3.3,2.62-4.88,4.01-2.41,2.13-5.15,2.68-8.19,1.85-4.66-1.27-9.09-3.11-13.08-5.87-1.22-.85-2.34-1.94-3.25-3.12-1.43-1.84-1.35-3.94.16-5.71.91-1.06,2-2.03,3.17-2.77,4.02-2.52,8.41-4.17,13.03-5.23,2.08-.48,4.12-.16,6.11.54,1.58.55,3.16,1.1,4.97,1.73.75-1.9,1.51-3.78,2.19-5.68.11-.3-.03-.88-.27-1.07-1.44-1.11-1.43-2.74-1.62-4.29-.1-.81-.05-1.65,0-2.47.11-1.73-.68-3.09-1.75-4.53-.28.69-.52,1.25-.74,1.83-.88,2.27-1.78,4.53-2.62,6.81-.21.57-.53.79-1.13.88-2.19.3-4.29.18-6.41-.58-3.07-1.1-6.21-.87-9.34-.15-.54.12-1.11.15-1.66.21-.08,0-.18-.04-.41-.1,1.15-1.48,2.45-2.66,4.29-2.74,1.39-.06,2.79.25,4.19.44.58.08,1.15.28,1.73.4,2.26.46,3.76-.17,4.69-2.26,1.67-3.76,2.42-7.66,1.11-11.71-1.25-3.85-2.41-7.72-2.93-11.75-.07-.54-.16-1.08-.24-1.63-1.46.94-2.79,1.91-4.22,2.7-4.32,2.41-8.61,2.3-12.79-.38-1.05-.68-2.09-1.38-3.04-2.19-2.98-2.53-6.11-4.78-9.81-6.15-.32-.12-.62-.33-1.04-.57,1.26-.55,2.44-.57,3.5-.15,1.71.66,3.39,1.42,4.98,2.32,1.77,1,3.42,2.21,5.13,3.32,1.14.74,2.38.99,3.75.96,2.2-.05,4.4.07,6.61.08.25,0,.66-.19.73-.39,1.01-2.81,1.97-5.64,2.97-8.54-1.28,0-2.46.03-3.63,0-1.48-.05-2.96-.1-4.43-.25-1.48-.15-2.69-.88-3.51-2.13-2.22-3.35-4.53-6.62-7.53-9.42,1.8-.3,4.96,1.2,6.11,2.85.17.24.35.49.46.76,1.07,2.66,3.24,3.71,5.89,3.94,2,.18,4.01.21,6.01.23.31,0,.76-.33.91-.62,1.28-2.48,2.39-5.06,3.79-7.47.94-1.63,2.24-3.06,3.41-4.56.67-.86,1.42-1.66,2.13-2.49-.1-.1-.2-.2-.3-.3-.72.67-1.49,1.3-2.16,2.02-2.29,2.48-5.82,2.61-8.23.25-.35-.34-.7-.7-1.03-1.07-2-2.22-4.5-3.43-7.47-3.48-2.74-.05-4.94-1.14-6.82-3.06-4.83-4.91-7.47-10.83-8.24-17.62-.57-5.03-.28-10.01,1.58-14.77.6-1.54,1.5-2.99,2.45-4.35.55-.79,1.48-1.31,2.24-1.96.1.08.21.16.31.23-.24.84-.5,1.67-.73,2.51-.64,2.31-1.42,4.59-1.88,6.94-.66,3.41.31,6.61,2.31,9.32,1.47,1.99,1.71,3.97,1.16,6.21-.3,1.21-.58,2.42-.91,3.75,4.47,1.81,8.07,4.88,11.65,7.99,1.27,1.1,2.21.93,2.92-.59,1.04-2.23,1.86-4.56,2.77-6.84.3-.76.57-1.52.86-2.29.12,0,.23.01.35.02v6.58c1.31-.38,2.32-.63,3.3-.95,1.9-.62,3.75-1.49,5.7-1.86,2.15-.41,4.24-.03,5.85,1.8.47.53,1.23.98,1.92,1.1,1.51.27,3.08.5,4.59.38.89-.07,1.89-.66,2.56-1.31,2.56-2.5,5.45-2.67,8.58-1.46,1.32.51,2.58,1.16,3.87,1.73.48.21.96.4,1.73.73.38-2.28.73-4.42,1.08-6.56.06-.03.11-.05.17-.08.24.55.53,1.08.7,1.64.32,1.04.58,2.09.84,3.14.57,2.31,2,3.89,4.15,4.82.37.16.99.11,1.32-.11.89-.61,1.73-1.32,2.5-2.08,2.46-2.42,5.2-4.44,8.27-6.01.17-.09.33-.2.53-.32-.36-1.21-.71-2.4-1.08-3.59-.52-1.71-.31-3.25.7-4.78,1.68-2.56,2.8-5.35,3.02-8.46.15-2.08-.31-4.05-.95-6-.51-1.56-1.01-3.13-1.5-4.7-.1-.31-.14-.63-.21-.94.08-.08.17-.15.25-.23.79.68,1.67,1.29,2.36,2.06,1.74,1.97,2.71,4.36,3.23,6.9,2.12,10.45.62,20.14-6.19,28.68-2.04,2.55-4.43,4.4-7.92,4.25-.68-.03-1.38.11-2.05.25-2.4.49-4.39,1.6-5.86,3.66-2.06,2.89-5.38,3.18-8.16.91-1-.81-2.07-1.53-3.11-2.29l-.27.32c.51.57.97,1.2,1.56,1.69,1.78,1.48,3.04,3.34,4.16,5.34,1.31,2.35,2.7,4.67,4.04,7.01.33.57.77.77,1.43.81,2.04.12,4.07.35,6.1.46.38.02.88-.21,1.14-.49,1.06-1.17,2.02-2.43,3.06-3.62,2.05-2.36,4.68-4.05,7.31-4.64ZM885.43,386.61c.89,3.36,5.44,7.19,8.73,7.41.2.01.52-.05.6-.19.74-1.29,1.45-2.61,2.19-3.97-3.82-1.45-7.26-3.66-11.52-3.26ZM867.84,386.54c-4.72-.31-9.21,1.41-11.2,5.25,1.03.89,2.07,1.78,2.95,2.53,1.69-1.07,3.17-2.25,4.84-3.01,2.15-.98,2.71-2.83,3.41-4.77ZM858.71,469.38c0,.96-.02,1.81,0,2.66.04,1.35.58,1.76,1.89,1.51,1.83-.34,3.36-1.28,4.83-2.36.71-.53,1.39-1.1,2.28-1.82h-9.01Z"/>
  </g>
  <g>
    <rect class="cls-3" y="515" width="960" height="147"/>
    <path d="M899.78,642.99c.37-.09.73-.19,1.1-.27,2.04-.41,4.07-.82,6.11-1.2.68-.13,1.15-.41,1.23-1.15.13-1.31.38-2.62.36-3.93-.04-2.06-1.36-3.29-3.17-3.87-1.75-.56-3.57-1.07-5.38-1.21-3.06-.24-6.16-.4-9.22-.2-6.84.43-13.25,2.66-19.63,5-5.24,1.92-10.51,3.76-15.83,5.43-3.74,1.17-7.67,1.35-11.57,1.08-3-.21-5.87-1.04-8.47-2.62-3.61-2.19-5.47-5.49-6.08-9.61-.32-2.18-.19-4.31.33-6.45.93-3.81,3.23-6.52,6.65-8.32,2.88-1.52,6-2.27,9.18-2.76,1.73-.27,3.47-.43,5.21-.6.75-.08,1.03-.33.77-1.13-.99-3.09-2.05-6.17-2.86-9.31-.62-2.4-1.07-4.88-1.3-7.35-.85-9.19,2.7-16.66,9.33-22.79,5.92-5.48,12.52-9.95,20.29-12.39,6.04-1.9,10.52-5.78,14.12-10.81.23-.32.3-.94.16-1.31-.34-.87-.83-1.69-1.29-2.51-.57-1.02-1.21-2-1.75-3.03-1.2-2.25-.42-3.99,1.28-5.55,1.28-1.17,2.85-1.11,4.27-.34,1.09.59,2.02,1.48,3.14,2.33.17-.12.48-.34.77-.58,3.19-2.62,6.92-3.9,10.97-4.37,3.08-.35,6.17-.65,9.25-1.05,4.38-.58,6.23,1.08,5.54,5.46-.95,6-3.21,11.56-7.15,16.19-3.34,3.93-5.03,8.41-5.85,13.35-.6,3.59-.96,7.2-.76,10.83.17,3.17.81,6.18,3.4,8.4.69.59,1.29,1.28,1.94,1.92,1.46,1.43,1.57,3.1.91,4.93-.32.89-.84,1.21-1.7.8-.99-.47-2.07-.84-2.92-1.5-2.07-1.62-4.34-2.38-6.96-2.24-1.1.06-2.21,0-3.31.01-1.08.01-1.77.44-2.28,1.53-3.25,7.04-6.6,14.05-9.91,21.07-.58,1.23-1.17,2.46-1.74,3.7-.14.31-.25.64-.43,1.14,1.22,0,2.28,0,3.33,0,2.68.02,5.37-.08,8.04.13,1.81.14,3.38,1.1,4.61,2.5.22.25.38.55.67,1.01-.56.04-.89.09-1.23.09-2.57,0-5.13.04-7.7,0-4.36-.05-8.67.16-12.86,1.58-2.64.9-5.39.54-8.09.29-3.44-.33-6.89-.64-10.31-1.12-3.01-.43-6.01-.98-8.98-1.65-3.97-.9-7.87-1.06-11.59.77-1.49.73-2.98,1.67-4.11,2.86-3.24,3.39-1.69,9.04,2.76,10.54,3.35,1.13,6.77.94,10.19.48,6.08-.82,11.89-2.71,17.73-4.48,3.32-1.01,6.62-2.16,10.02-2.86,3.63-.75,7.35-1.12,11.05-1.5,2.19-.23,4.42-.34,6.6-.18,2.73.2,5.44.7,8.14,1.17.81.14,1.6.53,2.36.9,4.3,2.09,5.78,5.37,5.17,9.87-.23,1.65-.83,3.26-1.37,4.86-.14.4-.64.83-1.06.96-1.36.42-2.75.8-4.15,1.02-2.23.35-4.18-.47-5.98-1.67,0-.1.01-.19.02-.29Z"/>
  </g>
</svg>